<?xml version="1.0" encoding="utf-8"?><svg version="1.1" id="Layer_1" xmlns="http://www.w3.org/2000/svg" xmlns:xlink="http://www.w3.org/1999/xlink" x="0px" y="0px" viewBox="0 0 120.04 122.88" style="enable-background:new 0 0 120.04 122.88" xml:space="preserve"><style type="text/css">.st0{fill-rule:evenodd;clip-rule:evenodd;}</style><g><path class="st0" d="M88.41,122.88h31.63V26.36l-15.65-9.86l-15.98,9.43v15.22v10.85L62.58,32.96V13.69h7.77 c1.42,0,2.56-1.15,2.56-2.56s-1.15-2.56-2.56-2.56h-7.77v-6c0-1.42-1.15-2.56-2.56-2.56c-1.42,0-2.56,1.15-2.56,2.56v6h-7.49 c-1.42,0-2.56,1.15-2.56,2.56s1.15,2.56,2.56,2.56h7.49v19.29L31.63,52.2V26.36L15.98,16.5L0,25.93v15.22v81.73h31.63v-0.02h56.78 V122.88L88.41,122.88z M59.99,49.42c1.32,0,2.51,0.53,3.37,1.4c0.86,0.86,1.4,2.05,1.4,3.37c0,1.32-0.53,2.51-1.4,3.37 c-0.86,0.86-2.05,1.4-3.37,1.4s-2.51-0.53-3.37-1.4c-0.86-0.86-1.4-2.05-1.4-3.37c0-1.32,0.53-2.51,1.4-3.37 C57.48,49.96,58.67,49.42,59.99,49.42L59.99,49.42z M59.99,45.17c2.49,0,4.74,1.01,6.38,2.64c1.63,1.63,2.64,3.89,2.64,6.38 s-1.01,4.74-2.64,6.38c-1.63,1.63-3.89,2.64-6.38,2.64c-2.49,0-4.74-1.01-6.38-2.64c-1.63-1.63-2.64-3.89-2.64-6.38 s1.01-4.74,2.64-6.38C55.24,46.18,57.5,45.17,59.99,45.17L59.99,45.17z M60.05,69.82L60.05,69.82c8.68,0,15.79,7.11,15.79,15.79 v30.94H44.26V85.61C44.26,76.92,51.36,69.82,60.05,69.82L60.05,69.82z"/></g></svg>